<svg xmlns="http://www.w3.org/2000/svg" viewBox="0 0 750 500"><g id="freepik--background-complete--inject-205"><path d="M663.16,304.22,650,304.5l-6.66.11c-2.22.05-4.46,0-6.69.06h-.44v-.45L636.18,293v-.5h.5l13.24.06c4.41,0,8.83.11,13.24.16h.27V293c0,1.9-.08,3.79-.13,5.66Zm0,0-.14-5.65c0-1.86-.11-3.7-.13-5.54l.27.28c-4.41.05-8.83.16-13.24.16l-13.24.06.5-.5-.06,11.19-.44-.44c2.18,0,4.36,0,6.54.05l6.58.12Z" style="fill:#ebebeb"></path><path d="M648.39,318.33l-13.13.28-6.66.11c-2.22,0-4.46,0-6.69.06h-.45v-.45l-.05-11.19v-.5h.5l13.24.07c4.41,0,8.82.11,13.24.16h.27v.27c0,1.9-.09,3.79-.13,5.66Zm0,0-.14-5.65c0-1.86-.12-3.7-.14-5.54l.28.28c-4.42.05-8.83.16-13.24.16l-13.24.06.5-.5-.06,11.19-.44-.44c2.18,0,4.35,0,6.54.05l6.58.12Z" style="fill:#ebebeb"></path><path d="M113.32,304.22l-13.12.28-6.66.11c-2.23.05-4.47,0-6.7.06H86.4v-.45L86.34,293v-.5h.5l13.24.06c4.41,0,8.83.11,13.24.16h.28V293c0,1.9-.08,3.79-.13,5.66Zm0,0-.14-5.65c-.05-1.86-.11-3.7-.13-5.54l.27.28c-4.41.05-8.83.16-13.24.16l-13.24.06.5-.5,0,11.19-.45-.44c2.18,0,4.36,0,6.55.05L100,304Z" style="fill:#ebebeb"></path><path d="M98.55,318.33l-13.13.28-6.66.11c-2.22,0-4.46,0-6.69.06h-.44v-.45l-.05-11.19v-.5h.5l13.24.07c4.41,0,8.83.11,13.24.16h.28v.27c0,1.9-.08,3.79-.13,5.66Zm0,0-.14-5.65c0-1.86-.11-3.7-.13-5.54l.27.28c-4.41.05-8.83.16-13.24.16l-13.24.06.5-.5-.06,11.19-.44-.44c2.18,0,4.36,0,6.54.05l6.58.12Z" style="fill:#ebebeb"></path><path d="M677.93,318.33l-13.12.28-6.66.11c-2.23,0-4.47,0-6.7.06H651v-.45l0-11.19v-.5h.5l13.24.07c4.41,0,8.83.11,13.24.16h.28v.27c0,1.9-.08,3.79-.13,5.66Zm0,0-.14-5.65c0-1.86-.11-3.7-.13-5.54l.27.28c-4.41.05-8.83.16-13.24.16l-13.24.06.5-.5-.05,11.19-.45-.44c2.18,0,4.36,0,6.55.05l6.58.12Z" style="fill:#ebebeb"></path><path d="M473.69,137.37l-13.13.28-6.66.11c-2.22.05-4.46,0-6.69.06h-.45v-.45l-.05-11.19v-.5h.5l13.24.06c4.41,0,8.83.12,13.24.17H474v.27c0,1.9-.08,3.79-.13,5.65Zm0,0-.14-5.65c-.05-1.87-.12-3.71-.13-5.54l.27.27c-4.41,0-8.83.16-13.24.17l-13.24.06.5-.5-.06,11.19-.44-.45c2.18,0,4.36,0,6.54.06l6.58.11Z" style="fill:#ebebeb"></path><path d="M458.92,151.48l-13.13.28-6.66.11c-2.22,0-4.46,0-6.69.06H432v-.45l-.05-11.19v-.5h.51l13.24.06c4.41,0,8.82.12,13.24.17h.27v.27c0,1.9-.09,3.79-.13,5.65Zm0,0-.14-5.65c0-1.87-.12-3.71-.14-5.54l.28.27c-4.42.05-8.83.16-13.24.17l-13.24.06.5-.5-.06,11.19-.44-.45c2.18,0,4.35,0,6.54.06l6.58.11Z" style="fill:#ebebeb"></path><path d="M488.46,151.48l-13.12.28-6.67.11c-2.22,0-4.46,0-6.69.06h-.44v-.45l0-11.19v-.5h.5l13.24.06c4.41,0,8.83.12,13.24.17h.28v.27c0,1.9-.08,3.79-.13,5.65Zm0,0-.14-5.65c-.05-1.87-.11-3.71-.13-5.54l.27.27c-4.41.05-8.83.16-13.24.17l-13.24.06.5-.5-.05,11.19L462,151c2.18,0,4.36,0,6.55.06l6.57.11Z" style="fill:#ebebeb"></path><path d="M149.67,245.11l-13.13.28-6.66.11c-2.22,0-4.46,0-6.69.05h-.45v-.45l0-11.19v-.5h.5l13.24.06c4.41,0,8.82.11,13.24.16h.27v.27c0,1.9-.09,3.78-.13,5.65Zm0,0-.14-5.66c-.05-1.86-.12-3.7-.14-5.53l.28.27c-4.42.05-8.83.16-13.24.16l-13.24.07.5-.5-.06,11.19-.44-.45c2.18,0,4.36,0,6.54.06l6.58.11Z" style="fill:#ebebeb"></path><path d="M271.34,347.26l-13.13.28-6.66.11c-2.22.05-4.46,0-6.69.06h-.44v-.45l0-11.19v-.5h.5l13.24.07c4.41,0,8.83.11,13.24.16h.27v.27c0,1.9-.08,3.79-.13,5.66Zm0,0-.14-5.65c-.05-1.86-.12-3.71-.13-5.54l.27.28c-4.41,0-8.83.15-13.24.16l-13.24.06.5-.5-.06,11.19-.44-.44c2.18,0,4.36,0,6.54.05L258,347Z" style="fill:#ebebeb"></path><path d="M661.63,62.38l-13.13.28-6.66.11c-2.22,0-4.46,0-6.69.06h-.45v-.45l-.05-11.19v-.5h.5l13.24.06c4.41,0,8.82.12,13.24.17h.27v.27c0,1.9-.09,3.79-.13,5.65Zm0,0-.14-5.65c0-1.87-.12-3.71-.14-5.54l.28.27c-4.42,0-8.83.16-13.24.17l-13.24.06.5-.5-.06,11.19-.44-.45c2.18,0,4.36,0,6.54.06l6.58.11Z" style="fill:#ebebeb"></path><path d="M676.4,76.49l-13.13.28-6.66.11c-2.22.05-4.46,0-6.69.05h-.44v-.45l-.05-11.19v-.5h.5l13.24.06c4.41,0,8.83.12,13.24.17h.28v.27c0,1.9-.08,3.79-.13,5.65Zm0,0-.14-5.65c0-1.87-.11-3.71-.13-5.54l.27.27c-4.41.05-8.83.16-13.24.17l-13.24.06.5-.5-.06,11.19-.44-.45c2.18,0,4.36,0,6.54.06l6.58.11Z" style="fill:#ebebeb"></path><path d="M98.55,62.39l-13.13.28-6.66.11c-2.22,0-4.46,0-6.69.06h-.44v-.45L71.57,51.2v-.5h.5l13.24.07c4.41,0,8.83.11,13.24.16h.28v.27c0,1.9-.08,3.79-.13,5.66Zm0,0-.14-5.65c0-1.87-.11-3.71-.13-5.54l.27.27c-4.41.06-8.83.16-13.24.17l-13.24.06.5-.5-.06,11.19L72.07,62c2.18,0,4.36,0,6.54,0l6.58.11Z" style="fill:#ebebeb"></path><rect x="89.58" y="200.31" width="97.79" height="181.87" transform="translate(276.95 582.49) rotate(180)" style="fill:#ebebeb"></rect><rect x="84.84" y="195.29" width="107.26" height="5.02" transform="translate(276.95 395.6) rotate(180)" style="fill:#dbdbdb"></rect><rect x="51.11" y="195.29" width="33.73" height="5.02" transform="translate(135.95 395.6) rotate(180)" style="fill:#ebebeb"></rect><rect x="56.45" y="200.31" width="33.13" height="181.87" transform="translate(146.03 582.49) rotate(180)" style="fill:#dbdbdb"></rect><path d="M176.84,317.43H100.1V274.05h76.74Zm-76.49-.25h76.24V274.3H100.35Z" style="fill:#c7c7c7"></path><rect x="134.24" y="286.73" width="14.94" height="8.59" transform="translate(283.43 582.05) rotate(180)" style="fill:#c7c7c7"></rect><path d="M144.89,294.8H129.7v-7.55h15.19ZM130,294.55h14.69V287.5H130Z" style="fill:#c7c7c7"></path><path d="M176.84,371.91H100.1V328.53h76.74Zm-76.49-.25h76.24V328.78H100.35Z" style="fill:#c7c7c7"></path><rect x="134.24" y="341.21" width="14.94" height="8.59" transform="translate(283.43 691.01) rotate(180)" style="fill:#c7c7c7"></rect><path d="M144.89,349.28H129.7v-7.54h15.19ZM130,349h14.69v-7H130Z" style="fill:#c7c7c7"></path><rect x="100.23" y="219.7" width="76.49" height="43.12" transform="translate(276.95 482.52) rotate(180)" style="fill:#a6a6a6"></rect><rect x="107.68" y="208.66" width="58.23" height="42.21" style="fill:#c7c7c7"></rect><polygon points="145.33 204.28 165.91 204.28 165.91 208.66 144.15 208.66 145.33 204.28" style="fill:#c7c7c7"></polygon><polygon points="107.83 250.86 166.06 250.86 170.55 212.16 112.32 212.16 107.83 250.86" style="fill:#a6a6a6"></polygon><polygon points="150.44 208.15 171.01 208.15 170.55 212.16 148.79 212.16 150.44 208.15" style="fill:#a6a6a6"></polygon><rect x="137.08" y="219.7" width="76.49" height="43.12" transform="translate(350.64 482.52) rotate(180)" style="fill:#ebebeb"></rect><path d="M213.69,263H137V219.57h76.74Zm-76.49-.25h76.24V219.82H137.2Z" style="fill:#c7c7c7"></path><rect x="171.09" y="232.25" width="14.94" height="8.59" transform="translate(357.12 473.09) rotate(180)" style="fill:#c7c7c7"></rect><path d="M181.74,240.31H166.55v-7.54h15.19Zm-14.94-.25h14.69v-7H166.8Z" style="fill:#c7c7c7"></path><rect x="100.23" y="226.16" width="36.66" height="36.66" transform="translate(237.12 488.98) rotate(180)" style="fill:#dbdbdb"></rect><rect x="585.32" y="331.79" width="66.82" height="50.39" style="fill:#ebebeb"></rect><rect x="652.15" y="331.79" width="34.5" height="50.39" style="fill:#dbdbdb"></rect><path d="M684.27,379q-3.82-5.39-7.59-10.79l-7.49-10.84-7.39-10.88q-3.67-5.46-7.28-10.94,3.84,5.37,7.6,10.78l7.48,10.84L677,368Q680.68,373.48,684.27,379Z" style="fill:#ebebeb"></path><path d="M684.27,335.52q-3.6,5.49-7.28,10.94l-7.39,10.88-7.48,10.84q-3.76,5.42-7.6,10.79,3.62-5.49,7.28-11l7.39-10.88,7.49-10.84Q680.43,340.89,684.27,335.52Z" style="fill:#ebebeb"></path><rect x="604.44" y="339.76" width="28.59" height="6.57" style="fill:#c7c7c7"></rect><rect x="601.48" y="356.44" width="34.5" height="10.46" style="fill:#fff"></rect><rect x="582.08" y="324.45" width="107.78" height="7.27" style="fill:#c7c7c7"></rect><rect x="599.82" y="274.06" width="66.82" height="50.39" style="fill:#ebebeb"></rect><rect x="666.64" y="274.06" width="34.5" height="50.39" style="fill:#dbdbdb"></rect><path d="M698.77,321.24q-3.84-5.39-7.6-10.79l-7.49-10.83-7.39-10.89q-3.67-5.44-7.27-10.94,3.83,5.37,7.59,10.78l7.49,10.84,7.39,10.89Q695.17,315.75,698.77,321.24Z" style="fill:#ebebeb"></path><path d="M698.77,277.79q-3.62,5.49-7.28,10.94l-7.39,10.89-7.49,10.83q-3.75,5.42-7.59,10.79,3.6-5.49,7.27-10.94l7.39-10.89,7.49-10.84Q694.94,283.17,698.77,277.79Z" style="fill:#ebebeb"></path><rect x="618.93" y="282.03" width="28.59" height="6.57" style="fill:#c7c7c7"></rect><rect x="615.98" y="298.71" width="34.5" height="10.46" style="fill:#fff"></rect><rect x="596.57" y="266.73" width="107.78" height="7.27" style="fill:#c7c7c7"></rect><circle cx="427.68" cy="78.82" r="22.04" style="fill:#ebebeb;opacity:0.19"></circle><circle cx="427.68" cy="82.45" r="16.34" transform="translate(242.23 476.55) rotate(-75.71)" style="fill:#ebebeb;opacity:0.19"></circle><polygon points="451.74 82.45 436.52 108.39 418.85 108.39 403.62 82.45 451.74 82.45" style="fill:#ebebeb"></polygon><polygon points="440.65 117.13 414.72 117.13 418.85 108.39 436.52 108.39 440.65 117.13" style="fill:#ebebeb"></polygon><polygon points="439.27 103.71 436.52 108.39 418.84 108.39 416.76 104.85 439.27 103.71" style="fill:#c7c7c7"></polygon><circle cx="522" cy="78.82" r="22.04" style="fill:#ebebeb;opacity:0.19"></circle><circle cx="522" cy="82.45" r="16.34" transform="translate(45.85 311.72) rotate(-34.69)" style="fill:#ebebeb;opacity:0.19"></circle><polygon points="546.06 82.45 530.83 108.39 513.16 108.39 497.94 82.45 546.06 82.45" style="fill:#ebebeb"></polygon><polygon points="534.97 117.13 509.03 117.13 513.16 108.39 530.83 108.39 534.97 117.13" style="fill:#ebebeb"></polygon><polygon points="533.59 103.71 530.84 108.39 513.16 108.39 511.08 104.85 533.59 103.71" style="fill:#c7c7c7"></polygon><circle cx="616.32" cy="78.82" r="22.04" style="fill:#ebebeb;opacity:0.19"></circle><circle cx="616.32" cy="82.45" r="16.34" transform="translate(56.43 352.95) rotate(-33.41)" style="fill:#ebebeb;opacity:0.19"></circle><polygon points="640.38 82.45 625.15 108.39 607.48 108.39 592.25 82.45 640.38 82.45" style="fill:#ebebeb"></polygon><polygon points="629.29 117.13 603.35 117.13 607.48 108.39 625.15 108.39 629.29 117.13" style="fill:#ebebeb"></polygon><polygon points="627.91 103.71 625.16 108.39 607.48 108.39 605.39 104.85 627.91 103.71" style="fill:#c7c7c7"></polygon></g><g id="freepik--Floor--inject-205"><polygon points="45.65 382.18 127.98 381.94 210.32 381.85 375 381.68 539.68 381.85 622.01 381.94 704.35 382.18 622.01 382.43 539.68 382.51 375 382.68 210.32 382.51 127.98 382.42 45.65 382.18" style="fill:#263238"></polygon></g><g id="freepik--Plant--inject-205"><path d="M278.16,268.84a92.6,92.6,0,0,1,2.13-15c1.06-4.44,2.56-9,5.36-12.65,2.56-3.36,6.24-6,10.51-6.55,4.12-.5,8,1.33,11.06,3.92,3.81,3.22,6.73,7.47,9.48,11.59a142.75,142.75,0,0,1,8.18,14.33c.08.16-.16.3-.24.14a89,89,0,0,0-7.33-12,74.36,74.36,0,0,0-8.43-10.21c-2.82-2.76-6.41-5.34-10.5-5.47s-7.83,2.16-10.29,5.3c-2.74,3.51-4.13,7.89-5.18,12.16a91.72,91.72,0,0,0-2.11,14.29c-.8,9.88-1,19.82-1.24,29.73q-.19,8.41-.26,16.83c0,2.84,0,5.69-.07,8.53a52.44,52.44,0,0,1-.32,8.22c-.1.55-1,.5-1.09,0a49.36,49.36,0,0,1-.38-7.79q-.06-4-.1-8.08c0-5.24-.07-10.47,0-15.71C277.32,289.88,277.44,279.33,278.16,268.84Z" style="fill:#263238"></path><path d="M292.28,261.39c.53-2.8,1.47-6.44,3.06-8.61,2.87-3.89,6-2.2,3.1,2.11a25.77,25.77,0,0,0-4,10.63s4.81,6.87,10.62,10.25c-.25-2.64-1-6.7-.48-10.62,1.11-8.49,6.25-8,5-1.27-1,5.41-1.44,11.15-1.16,13.64a28.6,28.6,0,0,0,6.2,3c-.33-1-.69-2.16-1.08-3.59-2.06-7.61,3-10,3.18-5.7a60.2,60.2,0,0,0,2,10.79c2.79.94,5.1,1.58,6.51,2.07a23.79,23.79,0,0,1,9.52,6.51,30,30,0,0,0,6.48-8.4c-1.77-1.52-4.58-3.79-8.47-6.54-7.29-5.15-4.76-11.65,1-7.61,4.18,2.92,7.41,8.33,8.88,11.1A45.26,45.26,0,0,0,345.91,264c-5.73-5.38-19.9-12.88-15.63-12.88,3.84,0,12.44,5.64,15.6,7.81a41.32,41.32,0,0,0-.48-4.41c-5.4-3.54-22.94-9-20.15-10.62,3.07-1.74,15.31,3.92,19,5.72a22.48,22.48,0,0,0-3.24-6.72c-7.46-10-20.91-13.42-26.78-11.52-4.15,1.35-2.94,11.88-3.83,11.52C293.73,236.18,286.15,240.92,292.28,261.39Zm40.89-1.16c1.18-1.43,6.66,2.78,5.07,5.08S331.64,262.06,333.17,260.23Zm-28.6-9c1.44.91-.69,6.23-2.91,4.62C299.77,254.5,303.12,250.32,304.57,251.25Z" style="fill:#407BFF"></path><path d="M306.75,252.88c.75-1.49,1.54-3,2.4-4.4a26.76,26.76,0,0,1,2.75-4c-.23-.29-.46-.59-.71-.87-.1-.12.07-.29.17-.17.28.32.55.64.82,1a.24.24,0,0,1,.12.14c1,1.23,2,2.5,2.93,3.8a45.33,45.33,0,0,1,4.84,1.4c1.64.55,3.26,1.12,4.85,1.79.16.07.08.35-.08.27-1.58-.69-3.18-1.37-4.81-1.92s-3.12-.92-4.68-1.37c.51.72,1,1.45,1.49,2.18a57.37,57.37,0,0,1,8.56,3.5c2.9,1.37,5.68,3,8.46,4.57.15.09,0,.34-.15.24-2.72-1.62-5.55-3-8.41-4.35-2.68-1.25-5.46-2.29-8.16-3.48,6.81,10.63,10.89,22.89,16.35,34.25.08.16-.18.3-.24.13-1.67-4-3.59-7.86-5.41-11.78-1.63-3.51-3.22-7-4.85-10.57-.48-1-1-2-1.47-3.08.3,5.68.18,11.46,1.11,17.07a.14.14,0,1,1-.28,0c-.39-6.07-1.46-12-1.42-18.14,0,0,0,0,0-.08-1.15-2.32-2.38-4.61-3.71-6.84-2.26,5.32-4.63,10.71-5.68,16.42,0,.17-.32.09-.28-.09,1.54-5.71,3-11.44,5.72-16.73a66,66,0,0,0-4.8-6.91c-.76,1.41-1.73,2.75-2.59,4.1s-1.66,2.64-2.44,4a57.82,57.82,0,0,0-4.26,9c-.06.18-.34.09-.27-.08C304,258.86,305.26,255.82,306.75,252.88Z" style="fill:#263238"></path><path d="M253.06,265.8c4.37-4.38,9.45-10.13,16.21-10.12,6.52,0,11.31,5.26,14.07,10.67,2.88,5.67,3.92,12.08,4.73,18.32a220.12,220.12,0,0,1,1.73,22.51c.12,4.18.1,8.37,0,12.55a82.45,82.45,0,0,1-1,12.66c-.12.67-1.2.7-1.24,0-.2-3.52-.06-7.06,0-10.58s0-6.94-.16-10.41c-.26-7-.77-14-1.59-21-.72-6.09-1.29-12.35-3.12-18.23-1.64-5.31-4.72-11.37-10.1-13.7-7.34-3.18-14.51,2.62-19.31,7.53C253.15,266.11,252.93,265.93,253.06,265.8Z" style="fill:#263238"></path><path d="M230.76,275.6h0c0,.89.09,1.78.15,2.64a15.85,15.85,0,0,1,7.16-3c6.2-.66,5.81,4,1.66,4.25a23.52,23.52,0,0,0-8.51,1.71c1,8.19,3.27,14.77,3.61,14.86A119.08,119.08,0,0,0,251.22,294c-1.55-3.29-5.06-7.65-3.27-8s3.75,3.54,4.74,7.71a77.06,77.06,0,0,0,11.92-3.28c-2.73-2.36-6.94-5.3-5.33-6.55s5,2.88,7,5.89a24,24,0,0,0,5.16-2.87c-3.68-5.4-12.64-6.5-11.47-10.41s9.55,1.51,13.31,8.74c4.43-4.58,5.72-11.07,5.25-16.61-3.85-.45-11.25.36-10.72-2.4s5.89-2.24,10.27-.63a15.39,15.39,0,0,0-2.57-6.09C271.41,254.32,259,261,259,261s1.33-12.45-3.4-14.6c-2.72-1.24-7.52-1.23-12.34,1.61,2.7.22,6,1.08,7.28,2.95,1.68,2.4-1,3.7-2.65,2.6-1.19-.79-3.41-3.25-7.4-3.58a24.44,24.44,0,0,0-4.47,4.95c-.46.65-.89,1.33-1.31,2.06a17,17,0,0,1,14.5.26c5.37,2.67,2.37,8.25-2.25,6.08s-9-4.3-13.92-3.07a34.76,34.76,0,0,0-2.35,13.88,24.33,24.33,0,0,1,7.95-3.82c5.34-1.4,7,1.79,1.09,2.39A23.31,23.31,0,0,0,230.76,275.6Zm6.5-8.57c-.37-1.73,3.41-2.23,4-.83C241.83,267.4,237.62,268.76,237.26,267Zm32.38,9.57c.36-.94,2.89.13,2.66,1.31C272,279.48,269.3,277.55,269.64,276.6Zm-17.88,6.07c1.85-.74,4.73,3.85,2.72,4.9S250.25,283.28,251.76,282.67Z" style="fill:#407BFF"></path><path d="M235.55,295.17c2.78-4.65,5.53-9.33,8.45-13.9,1.36-2.12,2.79-4.21,4.27-6.25l-.67-.16c-.36-.08-.73-.15-1.1-.21q-1.29-.22-2.58-.36c-.81-.08-1.63-.13-2.45-.14a12,12,0,0,0-2.61.14c-.1,0-.12-.14,0-.14.87,0,1.76-.08,2.63-.09s1.69,0,2.54.06,1.58.13,2.36.25c.44.06.87.14,1.3.23a6.74,6.74,0,0,1,.78.16q2.27-3.11,4.69-6.09a55.71,55.71,0,0,0-15.23-4.86c-.09,0,0-.15,0-.14a51.43,51.43,0,0,1,15.44,4.69c.89-1.09,1.79-2.18,2.69-3.26s2.08-2.39,3-3.68c.06-.08.18,0,.11.08a55,55,0,0,0-3.53,4.33h0a53.67,53.67,0,0,1,5.66,4.55c1.85,1.64,3.66,3.33,5.41,5.08.07.06,0,.16-.1.1-1.73-1.73-3.53-3.37-5.41-4.94s-3.86-3-5.75-4.54c0,0,0,0,0,0-.43.58-.86,1.15-1.3,1.71l-.65.85s0,0-.05.06l-2.16,2.84a22.56,22.56,0,0,1,2.15,3.88c.62,1.31,1.17,2.67,1.67,4a59.47,59.47,0,0,1,2.32,8.71c0,.09-.12.13-.14,0a52,52,0,0,0-2.53-8.54c-.54-1.42-1.16-2.81-1.79-4.19s-1.28-2.47-1.82-3.74c-.63.83-1.25,1.66-1.86,2.5-.17.25-.34.5-.52.74a.08.08,0,0,1-.06.13h0c-1.91,2.66-3.73,5.4-5.5,8.16a2.59,2.59,0,0,1,.24.6c.12.34.22.68.32,1a20.75,20.75,0,0,1,.49,2.07c.12.65.21,1.32.28,2a18.62,18.62,0,0,0,.16,2.25c0,.11-.15.12-.13,0a7.45,7.45,0,0,0-.16-2.1c-.1-.72-.23-1.43-.4-2.14s-.32-1.27-.51-1.9c-.1-.32-.2-.63-.31-.94-.05-.16-.13-.34-.19-.51q-1.25,1.95-2.45,3.91c-1.61,2.6-3.19,5.21-4.79,7.81C235.68,295.41,235.47,295.3,235.55,295.17Z" style="fill:#263238"></path><path d="M278.45,330.88c.07-2.63.49-5.29.77-7.91s.59-5.26.87-7.9c.54-5.07.84-10.26,2-15.24a22.11,22.11,0,0,1,6.2-11.4,10.17,10.17,0,0,1,6.08-2.9,10.52,10.52,0,0,1,6.46,2,22.9,22.9,0,0,1,5.43,5.72,56.42,56.42,0,0,1,4.23,6.88c.05.09-.1.15-.15.06a35,35,0,0,0-9.16-10.26,10.8,10.8,0,0,0-5.77-2.41,7.82,7.82,0,0,0-5.6,2.23c-3.07,2.67-4.85,6.61-5.91,10.47-1.26,4.57-1.66,9.38-2.29,14.07-.37,2.79-.73,5.58-1.1,8.37s-.59,5.62-1.18,8.36A.46.46,0,0,1,278.45,330.88Z" style="fill:#263238"></path><path d="M291.42,310.41a14.63,14.63,0,0,0,2.86,2.93c-.43-2.57-1-7.14.34-9.57,2-3.78,4.41-1.9,3.21,1.39a26.72,26.72,0,0,0-1.95,9.31,40.6,40.6,0,0,0,8.76,4.13,14.63,14.63,0,0,1-.29-4.51c.4-4,3.5-4,2.69.24a26.3,26.3,0,0,0-.42,4.94,91.69,91.69,0,0,0,13.64,3.08,39.77,39.77,0,0,0,5.65-10.06c-3.29-.82-9.94-1-9.8-3.36.19-3.16,6.64-.73,10.41,1.57a25.3,25.3,0,0,0,1.14-8.51,42.6,42.6,0,0,0-9.07-1.5c-6.77-.59-6.44-4.43-1.53-4.34,3.62.07,8.2,2.28,10.37,3.44-1.41-9.21-8.44-15.11-14.07-15.34-9.47-.38-6.06,11.4-6.06,11.4s-6.42-4.51-12.47-4.39S284.94,301.41,291.42,310.41Zm25.29-17c-.21-1.33,4-1.65,4.23.06C321.2,295.34,316.92,294.73,316.71,293.38Zm6.8,13.82c-.09-.86,1.73-1,2.15.08C325.93,308,323.58,308.06,323.51,307.2Zm-22.74.81c1.43.2,2.24,5.3-.22,5.2C298.68,313.13,299.56,307.84,300.77,308Z" style="fill:#407BFF"></path><path d="M302.74,313.68c.24-.64.45-1.28.65-1.93-.18.65-.35,1.31-.47,2A.09.09,0,1,1,302.74,313.68Z" style="fill:#263238"></path><path d="M305.24,305.47c.45-1.3.95-2.6,1.45-3.88.28-.69.56-1.37.86-2a8.23,8.23,0,0,1,.84-1.71,13.67,13.67,0,0,1-.77-1.65.05.05,0,0,1,.09-.05,20.27,20.27,0,0,1,1.85,2.86l.77,1.35a12.23,12.23,0,0,1,1.59.25c.57.1,1.13.22,1.7.34l1.68.4c.56.13,1.12.31,1.68.4.14,0,.08.23,0,.18a9.9,9.9,0,0,0-1.78-.46c-.54-.12-1.08-.22-1.63-.3s-1.11-.14-1.66-.2l-1.25-.1c.22.4.46.79.68,1.19a1.74,1.74,0,0,0,.1.19,5.27,5.27,0,0,1,1.36.16c.49.09,1,.18,1.46.29,1,.22,2,.45,2.95.72,2.05.58,4.07,1.23,6.09,1.89.11,0,0,.21-.07.17a58.33,58.33,0,0,0-6.12-1.7c-1-.22-1.94-.44-2.91-.64l-1.46-.31a10.84,10.84,0,0,1-1.13-.25q1.56,2.88,2.93,5.87c2,4.35,3.61,8.83,5.3,13.28,0,.12-.13.19-.17.08a122.48,122.48,0,0,0-5.64-13l-1.15-2.3c0,.16-.07.31-.1.47-.1.53-.19,1-.28,1.58-.18,1.06-.36,2.11-.52,3.17a36.67,36.67,0,0,0-.76,6.58c0,.14-.21.13-.18,0a31.09,31.09,0,0,0,.23-3.2c.07-1.11.15-2.22.28-3.32s.26-2.13.44-3.18c.08-.53.18-1.06.27-1.59a3.15,3.15,0,0,1,.3-1.14c-.55-1.11-1.1-2.23-1.66-3.34s-1.06-2.08-1.6-3.11c-.23-.44-.48-.88-.72-1.32a13.47,13.47,0,0,1-.63,1.59c-.24.6-.49,1.2-.73,1.79-.55,1.32-1.05,2.66-1.56,4-.71,1.9-1.5,3.84-2.09,5.81C304.11,309.35,304.6,307.38,305.24,305.47Z" style="fill:#263238"></path><path d="M303.39,311.75c0-.16.09-.31.14-.46C303.48,311.44,303.44,311.6,303.39,311.75Z" style="fill:#263238"></path><polygon points="262.62 325.76 263.28 339.85 265 376.18 302.48 376.18 304.19 339.85 304.86 325.76 262.62 325.76" style="fill:#37474f"></polygon><polygon points="262.62 325.76 263.28 339.85 304.19 339.85 304.86 325.76 262.62 325.76" style="fill:#263238"></polygon><rect x="259.95" y="320.06" width="47.57" height="11.4" transform="translate(567.48 651.51) rotate(180)" style="fill:#37474f"></rect><rect x="292.87" y="376.18" width="6.58" height="5.97" style="fill:#37474f"></rect><rect x="292.87" y="376.18" width="6.58" height="2.98" style="fill:#263238"></rect><rect x="268.03" y="376.18" width="6.57" height="5.97" style="fill:#37474f"></rect><rect x="268.03" y="376.18" width="6.57" height="2.98" style="fill:#263238"></rect></g><g id="freepik--Device--inject-205"><rect x="372.78" y="216.14" width="267.18" height="178.72" style="fill:#dbdbdb"></rect><rect x="374.72" y="218.32" width="263.3" height="174.36" style="fill:#263238"></rect><rect x="337.98" y="408.26" width="336.78" height="12.27" style="fill:#c7c7c7"></rect><polygon points="337.98 408.26 372.78 394.86 639.96 394.86 674.76 408.26 337.98 408.26" style="fill:#dbdbdb"></polygon><polygon points="375.89 403.51 398.35 394.86 614.4 394.86 636.86 403.51 375.89 403.51" style="fill:#263238"></polygon><rect x="389.6" y="231.57" width="233.54" height="147.87" style="fill:#fff"></rect><rect x="389.6" y="231.57" width="233.54" height="5.69" style="fill:#455a64"></rect><path d="M395,234.41a1.08,1.08,0,1,1-1.08-1.08A1.08,1.08,0,0,1,395,234.41Z" style="fill:#c7c7c7"></path><path d="M399.36,234.41a1.08,1.08,0,1,1-1.08-1.08A1.09,1.09,0,0,1,399.36,234.41Z" style="fill:#fff"></path><path d="M403.75,234.41a1.08,1.08,0,1,1-1.07-1.08A1.08,1.08,0,0,1,403.75,234.41Z" style="fill:#407BFF"></path><rect x="619" y="237.26" width="4.15" height="142.18" style="fill:#dbdbdb"></rect><path d="M621.07,286.55h0a1.06,1.06,0,0,1-1.07-1.07V239.16a1.06,1.06,0,0,1,1.07-1.07h0a1.07,1.07,0,0,1,1.07,1.07v46.32A1.07,1.07,0,0,1,621.07,286.55Z" style="fill:#a6a6a6"></path><path d="M572.49,368.71H440.26v-8.55H572.49Zm-131.73-.5H572v-7.55H440.76Z" style="fill:#407BFF"></path><rect x="442.03" y="361.94" width="2.99" height="4.99" style="fill:#407BFF"></rect><rect x="446.16" y="361.94" width="2.99" height="4.99" style="fill:#407BFF"></rect><rect x="450.28" y="361.94" width="2.99" height="4.99" style="fill:#407BFF"></rect><rect x="454.4" y="361.94" width="2.99" height="4.99" style="fill:#407BFF"></rect><rect x="458.52" y="361.94" width="2.99" height="4.99" style="fill:#407BFF"></rect><rect x="462.64" y="361.94" width="2.99" height="4.99" style="fill:#407BFF"></rect><rect x="466.76" y="361.94" width="2.99" height="4.99" style="fill:#407BFF"></rect><rect x="470.89" y="361.94" width="2.99" height="4.99" style="fill:#407BFF"></rect><rect x="475.01" y="361.94" width="2.99" height="4.99" style="fill:#407BFF"></rect><rect x="479.13" y="361.94" width="2.99" height="4.99" style="fill:#407BFF"></rect><rect x="483.25" y="361.94" width="2.99" height="4.99" style="fill:#407BFF"></rect><rect x="487.37" y="361.94" width="2.99" height="4.99" style="fill:#407BFF"></rect></g><g id="freepik--Folder--inject-205"><rect x="468.57" y="294.38" width="81.79" height="52.88" style="fill:#407BFF"></rect><polygon points="494.35 288.9 468.57 288.9 468.57 294.38 495.83 294.38 494.35 288.9" style="fill:#407BFF"></polygon><g style="opacity:0.1"><rect x="468.57" y="294.38" width="81.79" height="52.88"></rect><polygon points="494.35 288.9 468.57 288.9 468.57 294.38 495.83 294.38 494.35 288.9"></polygon></g><polygon points="468.85 309.6 519.6 325.55 540.08 260.41 502.4 248.56 485.43 256.87 468.85 309.6" style="fill:#ebebeb"></polygon><polygon points="502.4 248.56 485.43 256.87 498.5 260.98 502.4 248.56" style="fill:#dbdbdb"></polygon><rect x="502.53" y="265.31" width="29.58" height="1.75" transform="translate(103.64 -142.89) rotate(17.45)" style="fill:#dbdbdb"></rect><rect x="501.21" y="269.53" width="29.58" height="1.75" transform="translate(104.84 -142.3) rotate(17.45)" style="fill:#dbdbdb"></rect><rect x="499.88" y="273.75" width="29.58" height="1.75" transform="translate(106.05 -141.71) rotate(17.45)" style="fill:#dbdbdb"></rect><rect x="485.11" y="275.91" width="43.34" height="1.75" transform="translate(106.33 -139.24) rotate(17.45)" style="fill:#dbdbdb"></rect><rect x="483.78" y="280.13" width="43.34" height="1.75" transform="translate(107.54 -138.65) rotate(17.45)" style="fill:#dbdbdb"></rect><rect x="482.45" y="284.35" width="43.34" height="1.75" transform="translate(108.74 -138.06) rotate(17.45)" style="fill:#dbdbdb"></rect><rect x="481.13" y="288.58" width="43.34" height="1.75" transform="translate(109.95 -137.46) rotate(17.45)" style="fill:#dbdbdb"></rect><rect x="479.8" y="292.8" width="43.34" height="1.75" transform="translate(111.15 -136.87) rotate(17.45)" style="fill:#dbdbdb"></rect><rect x="478.47" y="297.02" width="43.34" height="1.75" transform="matrix(0.95, 0.3, -0.3, 0.95, 112.36, -136.28)" style="fill:#dbdbdb"></rect><rect x="477.15" y="301.24" width="43.34" height="1.75" transform="translate(113.56 -135.69) rotate(17.45)" style="fill:#dbdbdb"></rect><rect x="475.82" y="305.47" width="43.34" height="1.75" transform="translate(114.77 -135.09) rotate(17.45)" style="fill:#dbdbdb"></rect><rect x="474.49" y="309.69" width="43.34" height="1.75" transform="translate(115.97 -134.5) rotate(17.45)" style="fill:#dbdbdb"></rect><polygon points="550.17 347.26 468.38 347.26 462.75 298.76 544.55 298.76 550.17 347.26" style="fill:#407BFF"></polygon><polygon points="487.95 293.74 462.17 293.74 462.75 298.76 490.01 298.76 487.95 293.74" style="fill:#407BFF"></polygon></g><g id="freepik--Documents--inject-205"><path d="M355.29,164.7q-5.54-29.65-11.05-58.65c-24.54,2.91-48.93,15.75-73.52,15.51q5.52,29.67,11,58.65C306.31,177.3,330.69,164.47,355.29,164.7Z" style="fill:#dbdbdb"></path><path d="M282.65,126.25q3.08,16.08,6.13,32l1.89-.38Q287.61,142,284.54,126Z" style="fill:#c7c7c7"></path><path d="M287.42,125.48q3.06,16,6.13,31.78l1.89-.44q-3.07-15.8-6.13-31.7C288.68,125.24,288.05,125.37,287.42,125.48Z" style="fill:#c7c7c7"></path><path d="M292.19,124.51q3.06,15.86,6.12,31.6l1.89-.49-6.13-31.54C293.44,124.23,292.82,124.38,292.19,124.51Z" style="fill:#c7c7c7"></path><path d="M297,123.39q4.49,23.08,9,46l1.89-.54q-4.49-22.95-9-46Z" style="fill:#c7c7c7"></path><path d="M301.71,122.14q4.49,23,9,45.91l1.88-.55q-4.47-22.92-9-45.89Z" style="fill:#c7c7c7"></path><path d="M306.47,120.8q4.48,23,9,45.86l1.88-.55q-4.49-22.94-9-45.86Z" style="fill:#c7c7c7"></path><path d="M311.23,119.41q4.49,22.93,9,45.87l1.88-.54q-4.49-23-9-45.88Z" style="fill:#c7c7c7"></path><path d="M316,118q4.49,22.92,9,45.93l1.88-.5q-4.48-23.05-9-46Z" style="fill:#c7c7c7"></path><path d="M320.75,116.65q4.49,23,9,46.06l1.89-.45q-4.5-23.16-9-46.14Z" style="fill:#c7c7c7"></path><path d="M325.51,115.34q4.49,23,9,46.26l1.89-.39q-4.49-23.29-9-46.36Z" style="fill:#c7c7c7"></path><path d="M330.27,114.14q4.49,23.14,9,46.52l1.89-.31q-4.5-23.47-9-46.65Z" style="fill:#c7c7c7"></path><path d="M335,113.07q4.48,23.28,9,46.86l1.89-.23q-4.5-23.67-9-47Z" style="fill:#c7c7c7"></path><path d="M346.06,142.14q-.35,25.92-.69,51.84c27.65,26.91,55.3-18.17,83,7.85l.51-38.49a101,101,0,0,0-15.63-22C390.83,137.39,368.44,163,346.06,142.14Z" style="fill:#ebebeb"></path><path d="M428.84,163.34a101,101,0,0,0-15.63-22L413,154.81C418.3,155.7,423.57,158.22,428.84,163.34Z" style="fill:#dbdbdb"></path><path d="M414.47,189l.39-29.1c-.71-.17-1.42-.31-2.13-.43l-.39,29.14Q413.41,188.72,414.47,189Z" style="fill:#dbdbdb"></path><path d="M409.1,188.3q.18-14.6.38-29.18c-.71,0-1.42,0-2.13,0q-.19,14.59-.38,29.2C407.68,188.28,408.39,188.28,409.1,188.3Z" style="fill:#dbdbdb"></path><path d="M403.72,188.59q.19-14.62.38-29.24c-.71.09-1.42.19-2.13.31q-.18,14.63-.38,29.26Q402.66,188.73,403.72,188.59Z" style="fill:#dbdbdb"></path><path d="M398.34,189.6l.57-42.9-2.13.53-.57,42.93C396.92,190,397.63,189.78,398.34,189.6Z" style="fill:#dbdbdb"></path><path d="M393,191.11q.27-21.48.56-42.94c-.71.21-1.42.44-2.13.67q-.28,21.47-.56,42.95Z" style="fill:#dbdbdb"></path><path d="M387.59,192.87q.29-21.48.56-43l-2.13.72q-.28,21.48-.56,43Z" style="fill:#dbdbdb"></path><path d="M382.21,194.65l.57-43-2.14.67q-.27,21.47-.56,42.94Z" style="fill:#dbdbdb"></path><path d="M376.84,196.22q.27-21.47.56-42.92c-.71.19-1.42.37-2.13.53q-.28,21.45-.56,42.9Q375.78,196.49,376.84,196.22Z" style="fill:#dbdbdb"></path><path d="M371.46,197.34q.29-21.43.56-42.86-1.06.18-2.13.3-.28,21.42-.56,42.83Q370.4,197.51,371.46,197.34Z" style="fill:#dbdbdb"></path><path d="M366.08,197.78q.29-21.39.56-42.78c-.71,0-1.42,0-2.13,0q-.27,21.36-.56,42.73C364.66,197.76,365.37,197.78,366.08,197.78Z" style="fill:#dbdbdb"></path><path d="M360.71,197.31q.27-21.33.56-42.67-1.06-.18-2.13-.45-.28,21.32-.56,42.63C359.29,197,360,197.17,360.71,197.31Z" style="fill:#dbdbdb"></path><path d="M355.33,195.69q.29-21.27.56-42.54c-.71-.28-1.42-.6-2.13-1q-.28,21.24-.56,42.48C353.91,195.05,354.62,195.39,355.33,195.69Z" style="fill:#dbdbdb"></path><path d="M435.27,182Q419.82,206.59,404,231.84c32.44-13,26.81,41.7,55.92,34.64l20-31.25q3.69-5.47,7.38-11C455.92,235.13,463.18,177.3,435.27,182Z" style="fill:#dbdbdb"></path><path d="M450.38,261.42l21.45-33.33a11.78,11.78,0,0,1-1.5-.77q-10.69,16.59-21.41,33.26A16.23,16.23,0,0,0,450.38,261.42Z" style="fill:#c7c7c7"></path><path d="M446.85,259l21.37-33.18c-.44-.37-.87-.76-1.28-1.17q-10.65,16.53-21.36,33.17C446,258.24,446.42,258.64,446.85,259Z" style="fill:#c7c7c7"></path><path d="M443.77,255.8q10.71-16.65,21.36-33.17c-.38-.48-.75-1-1.11-1.48l-21.37,33.19C443,254.84,443.39,255.33,443.77,255.8Z" style="fill:#c7c7c7"></path><path d="M441,252l21.45-33.33c-.33-.55-.66-1.12-1-1.7q-10.69,16.61-21.49,33.4Z" style="fill:#c7c7c7"></path><path d="M438.51,247.77l21.57-33.54-.9-1.85L437.55,246Z" style="fill:#c7c7c7"></path><path d="M436.09,243.39q10.94-17.05,21.76-33.88l-.87-1.9q-10.86,16.9-21.85,34Z" style="fill:#c7c7c7"></path><path d="M433.65,239q11.07-17.29,22-34.33c-.29-.63-.58-1.26-.88-1.88q-11,17.13-22.13,34.54C433,237.92,433.32,238.47,433.65,239Z" style="fill:#c7c7c7"></path><path d="M431.07,234.93q11.25-17.6,22.33-34.89c-.31-.6-.62-1.19-.94-1.77Q441.3,215.7,430,233.42C430.35,233.91,430.71,234.42,431.07,234.93Z" style="fill:#c7c7c7"></path><path d="M428.23,231.28,451,195.7c-.34-.54-.69-1.06-1.05-1.57Q438.54,211.9,427,230C427.43,230.42,427.84,230.84,428.23,231.28Z" style="fill:#c7c7c7"></path><path d="M425,228.31q11.69-18.37,23.17-36.39c-.39-.45-.79-.89-1.21-1.3q-11.58,18.19-23.36,36.74A16.4,16.4,0,0,1,425,228.31Z" style="fill:#c7c7c7"></path><path d="M421.31,226.21q12-18.86,23.69-37.31a16.45,16.45,0,0,0-1.41-.94q-11.85,18.66-23.91,37.71A14.15,14.15,0,0,1,421.31,226.21Z" style="fill:#c7c7c7"></path><path d="M417,225.2q12.25-19.38,24.27-38.34a14.53,14.53,0,0,0-1.66-.5l-24.52,38.79A17.08,17.08,0,0,1,417,225.2Z" style="fill:#c7c7c7"></path></g><g id="freepik--Character--inject-205"><path d="M159.54,98.56c-7.16,4.7-10.85,14.09-10.85,14.09s-7.71,8.64-7.2,14.28a9.89,9.89,0,0,0,4.84,7.82l0-3.06s1.14,4.18,7.22,7,14.92,2.58,19.77,1.26a17.23,17.23,0,0,0,7.61-4.37l-2.52,3.95a13,13,0,0,0,11.27-4.8c5-5.84-3.61-17.48-4.09-19.7s1.41-17.33-14.76-18C170.86,97.08,164.46,95.32,159.54,98.56Z" style="fill:#c7c7c7"></path><path d="M144.14,133.91a10.2,10.2,0,0,1-3.25-5.18,9.32,9.32,0,0,1,.21-6.06,20.71,20.71,0,0,1,4.29-6c1.71-1.88,3.57-3.64,5.24-5.55.09-.1-.07-.24-.17-.16a56.14,56.14,0,0,0-4.93,4.33,26.79,26.79,0,0,0-4.14,4.63,10,10,0,0,0-1.84,5.33,9.7,9.7,0,0,0,1.11,4.51A21.07,21.07,0,0,0,144,134C144.11,134.11,144.23,134,144.14,133.91Z" style="fill:#c7c7c7"></path><path d="M192.42,128.23c-.76-5.86-5-10.34-7-15.73-1.09-2.92-1.77-6-3.42-8.71,0-.07-.17,0-.13.08,1.32,2.37,1.83,5,2.61,7.58a40.33,40.33,0,0,0,3.34,7.4c2.34,4.36,5.16,9.51,3.38,14.57-.82,2.34-2.78,4.71-5.39,5a.08.08,0,1,0,0,.15A7.84,7.84,0,0,0,191,135.1,10.09,10.09,0,0,0,192.42,128.23Z" style="fill:#c7c7c7"></path><path d="M192.34,129.75a10.32,10.32,0,0,0-.15-6.22,14.67,14.67,0,0,0-3.63-5.09c-1.69-1.7-3.5-3.36-4.32-5.67,0-.1-.18,0-.15.06,1.28,3.81,4.71,6.16,6.66,9.54,2.23,3.87,1.26,8.64-1.5,12a17,17,0,0,1-6.39,4.62s0,.08,0,.06C187.09,137.35,191.11,134.29,192.34,129.75Z" style="fill:#c7c7c7"></path><path d="M230.84,440.58c-2.22.72-65.59-.1-68-1.67-.91-.58-1.33-9.82-1.52-21v-.35c0-2.3-.07-4.67-.08-7.08,0-.33,0-.66,0-1-.09-16.13.17-32.87.17-32.87l42.39.42-1.28,32.57-.05,1.29-.25,6.74,0,.69s24.12,11.16,26.57,13.16S233.07,439.87,230.84,440.58Z" style="fill:#d3766a"></path><path d="M211.8,422.66c-.16,0-.25-.09-.26-.14Z" style="fill:#407BFF"></path><path d="M230.84,440.58c-2.22.72-65.58-.1-68-1.67-.81-.51-1.24-7.87-1.45-17.35C173,424,218,433.08,219.25,429.24c.48-1.52-3.37-4.13-5.8-5.61,6.65,3.17,14,6.8,15.32,7.86C231.19,433.48,233.07,439.87,230.84,440.58Z" style="fill:#263238"></path><path d="M148.41,194.08s9.52,107.08,11.07,115.25c.36,1.86.58,12,.72,25,.33,28.38.14,79.58.14,79.58H205s-1.32-88.7-3.3-105-14.62-114.79-14.62-114.79Z" style="fill:#263238"></path><path d="M203,406.11c-7-.14-5-.2-11.94-.27-3.41,0-25.83-.22-29,.3a.08.08,0,0,0,0,.15c3.19.52,25.61.33,29,.3,7-.07,5-.13,11.94-.27A.11.11,0,0,0,203,406.11Z" style="fill:#37474f"></path><path d="M168.82,355.41q-.07-9.72-.14-19.44c-.05-6.27,0-12.55-.34-18.82-.6-12.7-3.18-25.18-5-37.73s-3.36-25.15-4.74-37.77c-1.55-14.15-2.92-28.32-4.38-42.48,0-.1-.16-.1-.15,0,2.1,25.29,4.45,50.57,7.95,75.7q1.31,9.38,2.86,18.72c1,6.3,2.08,12.61,2.57,19s.57,12.5.63,18.75q.1,9.72.2,19.43c.14,14.38.28,36.51.41,50.9a.22.22,0,0,0,.44,0C169,388.82,168.92,368.24,168.82,355.41Z" style="fill:#37474f"></path><path d="M139,194.08s18.94,107.08,20.49,115.25c.36,1.86.58,12,.72,25v0L181.5,194.08Z" style="fill:#37474f"></path><path d="M125.21,444.18c-2.31-.36-58.47-29.71-59.9-32.19-.55-.93,3.25-9.36,8.13-19.42l.16-.32c1-2.07,21.05-35.89,21.05-35.89l34.55,20.28L110,410.79l-.33.6s16.47,20.86,17.75,23.74S127.52,444.56,125.21,444.18Z" style="fill:#d3766a"></path><path d="M125.21,444.18c-2.31-.36-58.47-29.71-59.9-32.19-.47-.79,2.23-7.07,6.07-15.14,8.05,6.09,46.92,35.28,49.76,32.25.59-.65.15-2.16-.64-3.78,3.4,4.5,6.44,8.63,7,9.81C128.73,438,127.51,444.55,125.21,444.18Z" style="fill:#263238"></path><path d="M115,409.54,74.08,384.25s47.35-67.76,47.57-73.78c.34-9,4.63-45.88,8.23-75.78,0,0-6.83-16.19,6-40.64h51.28s-3.43,23.27-9.32,38a68.28,68.28,0,0,0-11.4,5.21s-5.11,66.67-5.3,75C160.73,328.7,115,409.54,115,409.54Z" style="fill:#263238"></path><path d="M117.51,400.09c-5.9-3.7-4.15-2.72-10.1-6.36-2.91-1.78-22-13.46-25-14.64a.08.08,0,0,0-.08.12c2.47,2.09,21.8,13.43,24.75,15.15,6,3.53,4.32,2.45,10.38,5.9A.1.1,0,1,0,117.51,400.09Z" style="fill:#37474f"></path><path d="M179.75,231.06a84.33,84.33,0,0,0-13.35,6.22.15.15,0,0,0,.12.27c4.5-1.93,9.09-3.78,13.47-6A.3.3,0,0,0,179.75,231.06Z" style="fill:#37474f"></path><path d="M173.46,223.63c.45-2.68.81-5.36,1-8.07a73,73,0,0,0-.17-15.14.13.13,0,0,0-.26,0,137.86,137.86,0,0,1-1.22,20.91c-.5,3.32-2.18,8.34,1.3,8.85s5.84-7.87,6.28-10.17a76.87,76.87,0,0,0,.75-19.81c0-.16-.29-.19-.29,0a149,149,0,0,1-.75,15c-.21,2.31-2.07,15.12-6.09,14.18-.67-.15-1-.82-1.12-1.83a16.09,16.09,0,0,1,.53-3.93" style="fill:#37474f"></path><path d="M174.16,229.74a20.71,20.71,0,0,0-.91,2.65,6.06,6.06,0,0,0-.37,2.18c0,.14.2.16.28.06a7.6,7.6,0,0,0,.93-2.12c.31-.82.63-1.64.91-2.47A.45.45,0,0,0,174.16,229.74Z" style="fill:#37474f"></path><path d="M141.86,197.28a47.55,47.55,0,0,0-3.84,8.44,51.73,51.73,0,0,0-2.28,9c-.3,1.52-.4,3.06-.56,4.59s-.19,3.09-.1,4.63a48.74,48.74,0,0,0,1.07,9.17v.1q-1.78,19.4-3.69,38.78t-3.82,38.78l-.12,1.21-.06.61a2,2,0,0,1-.13.65,19.6,19.6,0,0,1-1.18,2.25c-.81,1.41-1.66,2.8-2.51,4.18-1.7,2.77-3.44,5.52-5.17,8.26-3.48,5.48-7,10.92-10.57,16.36-7.07,10.89-14.27,21.7-21.48,32.5l20.92-32.86,10.4-16.46q2.59-4.12,5.14-8.26c.84-1.39,1.68-2.78,2.48-4.18a21.92,21.92,0,0,0,1.09-2,1.47,1.47,0,0,0,.1-.53l.06-.61.11-1.21q1.85-19.38,3.83-38.75t4-38.73v.09a48.44,48.44,0,0,1-1-9.29,45.45,45.45,0,0,1,.16-4.67c.2-1.55.33-3.1.66-4.63a52.6,52.6,0,0,1,2.47-9A47.81,47.81,0,0,1,141.86,197.28Z" style="fill:#37474f"></path><path d="M186.16,184.68l1.55,12.09-52.41-1.65s2.64-38.63,17.75-53.2c7.55-7.28,15.85-6.21,20.84-.51,1.27,1.45,16.12,20.86,17.33,29.06C192.27,177.7,186.16,184.68,186.16,184.68Z" style="fill:#455a64"></path><path d="M178.17,180.6a46.59,46.59,0,0,0-7.49,1.22c-1.22.32-2.43.7-3.63,1.12q-.9.3-1.8.57a7.55,7.55,0,0,1-1.93.36.05.05,0,0,0,0,.1,12.69,12.69,0,0,0,1.85,0,12,12,0,0,0,1.77-.34c1.25-.31,2.48-.69,3.72-1,2.5-.66,5-1.32,7.54-1.78C178.32,180.81,178.29,180.59,178.17,180.6Z" style="fill:#263238"></path><path d="M184.33,183.2a51.76,51.76,0,0,0-6.23-.46c-1,0-2.07.06-3.11.15-.5,0-1,.1-1.49.16s-1.08.21-1.63.27a.05.05,0,0,0,0,.1c.52,0,1,0,1.56,0H175c1,0,2.08,0,3.12,0,2.08,0,4.15-.05,6.23,0C184.44,183.39,184.44,183.21,184.33,183.2Z" style="fill:#263238"></path><path d="M158.31,195.28a6.36,6.36,0,0,0,.35.58l.87,0A5,5,0,0,0,158.31,195.28Zm14.86-53.47a6.21,6.21,0,0,0-2-1.18,6.68,6.68,0,0,0,3.47,3A6,6,0,0,0,173.17,141.81Zm-32,30.09a6.4,6.4,0,0,0-1.18,2,6.13,6.13,0,0,0,1.79-1.46,6.39,6.39,0,0,0,1.18-2A6,6,0,0,0,141.13,171.9Zm11.42-27.57a6.24,6.24,0,0,0-1.17,2,6.28,6.28,0,0,0,1.78-1.47,6.36,6.36,0,0,0,1.19-2A6.51,6.51,0,0,0,152.55,144.33Zm16.87,24.47a6.55,6.55,0,0,0-1.19,2,6.37,6.37,0,0,0,1.8-1.47,6.13,6.13,0,0,0,1.17-2A6.42,6.42,0,0,0,169.42,168.8Zm-13.17,8.67a6.24,6.24,0,0,0-2.24.58,6.26,6.26,0,0,0,2.3.22,5.81,5.81,0,0,0,2.24-.58A6.24,6.24,0,0,0,156.25,177.47Zm31-6.12a6.3,6.3,0,0,0-2.24.58,6.74,6.74,0,0,0,4.54-.35A6.06,6.06,0,0,0,187.23,171.35Zm-19.48-19a5.87,5.87,0,0,0-2.24.59,6,6,0,0,0,2.3.21,6.28,6.28,0,0,0,2.24-.57A6.29,6.29,0,0,0,167.75,152.38Zm9.06,34.53a6,6,0,0,0-.57-2.24,6.51,6.51,0,0,0,.36,4.54A6,6,0,0,0,176.81,186.91Zm-33.42,1.74a6.53,6.53,0,0,0-.59-2.24,6.82,6.82,0,0,0,.36,4.54A6.49,6.49,0,0,0,143.39,188.65ZM184,157.09c0-.19,0-.38-.07-.57v0c-.19-.49-.38-1-.56-1.45a6.54,6.54,0,0,0-.17,2.1,6.35,6.35,0,0,0,.58,2.24A6.3,6.3,0,0,0,184,157.09Zm-29.44,4.6a5.91,5.91,0,0,0-.58-2.25,6.69,6.69,0,0,0,.36,4.55A6.3,6.3,0,0,0,154.6,161.69Z" style="fill:#fff"></path><path d="M161.86,141.12c.27,1,5.4,7.57,10.12,7.21,1.53-.13,1.24-8.53,1.24-8.53l.12-.62,1.68-8.76-10.41-6.24-1.51-.82s-.3,2.42-.64,5.45c0,.14,0,.28-.05.43s0,.33-.07.49c-.05.45-.11.91-.16,1.37s-.07.69-.1,1.06l-.09,1.1A57.16,57.16,0,0,0,161.86,141.12Z" style="fill:#d3766a"></path><path d="M175,130.42l-1.61,8.41a19.11,19.11,0,0,1-11.06-9.17l.11-.85c.35-3,.65-5.45.65-5.45l1.5.82Z" style="fill:#263238"></path><path d="M186.94,118.13c.31,15.64-9,17.59-12.39,17.65-3.06.06-13.49-.13-15.42-15.65S164.37,99.51,171.37,99,186.63,102.49,186.94,118.13Z" style="fill:#d3766a"></path><path d="M184.57,115.74c-.36-.06-.69-.17-1-.26a1.7,1.7,0,0,1-1-.47.56.56,0,0,1,0-.68,1.38,1.38,0,0,1,1.37-.27,2,2,0,0,1,1.25.76A.59.59,0,0,1,184.57,115.74Z" style="fill:#c7c7c7"></path><path d="M174,115.37c.37,0,.71-.12,1.07-.18a1.82,1.82,0,0,0,1.05-.4.57.57,0,0,0,0-.68,1.38,1.38,0,0,0-1.35-.37,2.08,2.08,0,0,0-1.3.67A.6.6,0,0,0,174,115.37Z" style="fill:#c7c7c7"></path><path d="M176.13,118.26s-.08,0-.08.09c0,1.07-.13,2.29-1.1,2.63,0,0,0,.07,0,.06C176.13,120.89,176.32,119.26,176.13,118.26Z" style="fill:#263238"></path><path d="M175.19,117.13c-1.71-.15-1.88,3.29-.3,3.43S176.63,117.26,175.19,117.13Z" style="fill:#263238"></path><path d="M174.51,117.28c-.31.18-.62.51-1,.53s-.72-.36-1-.72c0,0-.05,0-.06,0,0,.65.18,1.34.88,1.48s1.13-.44,1.33-1.09C174.73,117.4,174.64,117.21,174.51,117.28Z" style="fill:#263238"></path><path d="M182.1,118.42s.08.06.08.1c-.08,1.06,0,2.29,1,2.69a0,0,0,1,1,0,.05C182,121.05,181.86,119.42,182.1,118.42Z" style="fill:#263238"></path><path d="M183.09,117.35c1.72-.06,1.72,3.37.13,3.43S181.65,117.4,183.09,117.35Z" style="fill:#263238"></path><path d="M183.81,117.58c.27.18.54.51.87.53s.65-.35.89-.7c0,0,.05,0,.05,0,0,.66-.19,1.34-.83,1.47s-1-.45-1.15-1.1C183.61,117.69,183.7,117.5,183.81,117.58Z" style="fill:#263238"></path><path d="M176.48,127c.26.25.52.58.91.61a2.88,2.88,0,0,0,1.14-.3,0,0,0,0,1,0,.06,1.45,1.45,0,0,1-1.34.61,1.14,1.14,0,0,1-.85-.93C176.36,127,176.44,127,176.48,127Z" style="fill:#263238"></path><path d="M176.08,124.18a3.54,3.54,0,0,0,2.42,1.49,4.58,4.58,0,0,0,1.28,0l.24,0,.23,0a.27.27,0,0,0,.2-.25h0a.41.41,0,0,0,0-.11h0v-.09c0-.8-.13-2-.13-2,.3.14,1.82.76,1.78.34a53.28,53.28,0,0,0-1.76-10.68.1.1,0,0,0-.19,0c.19,3.34,1,6.62,1.2,10a6.45,6.45,0,0,0-1.69-.45c-.11,0,.28,2.35.25,2.71v0a4.91,4.91,0,0,1-3.71-1C176.1,124,176,124.1,176.08,124.18Z" style="fill:#263238"></path><g style="opacity:0.2"><path d="M177.34,111.69a13.37,13.37,0,0,0,2-.16c.67-.12,1.3-.38,2-.49a10.76,10.76,0,0,1,3.82.22c.11,0,.1.1,0,.08a9.51,9.51,0,0,0-4,.07,12,12,0,0,1-3.26.56,11.92,11.92,0,0,0-7.16,1.87s0,0,0,0A12.09,12.09,0,0,1,177.34,111.69Z"></path><path d="M177,109.93a14.89,14.89,0,0,0,1.89-.15c.64-.13,1.24-.37,1.87-.48a10.32,10.32,0,0,1,3.62.22c.11,0,.1.09,0,.07a9,9,0,0,0-3.8.07,11.65,11.65,0,0,1-3.1.53,11.27,11.27,0,0,0-6.79,1.78,0,0,0,1,1,0,0A11.38,11.38,0,0,1,177,109.93Z"></path></g><path d="M159.79,122.1c2.63.09,3-5.43,3-5.43s5.32-.21,6.74-7.93a11.77,11.77,0,0,1-2.08,6.42s9.34-1.4,13-9.41c0,0-1.41,4.06-2.82,5.55a11,11,0,0,0,5.67-4.54s1.83,4.45,3.15,5.65c0,0,2-21.47-18.66-13.65,0,0-8.62.32-11.71,8S159.79,122.1,159.79,122.1Z" style="fill:#c7c7c7"></path><path d="M161.64,121.28s-3.09-5.1-5.38-4-.2,8.3,2.33,9.44a2.65,2.65,0,0,0,3.64-1.19Z" style="fill:#d3766a"></path><path d="M156.91,119.31s0,0,0,.06c1.77.86,2.61,2.61,3.17,4.41a1.47,1.47,0,0,0-2.16-.55s0,.11.05.11a1.61,1.61,0,0,1,1.74.68,7.83,7.83,0,0,1,.76,1.5c.08.17.38.1.33-.09v0C161,123.07,159.39,119.71,156.91,119.31Z" style="fill:#263238"></path><path d="M160.43,126.09a.77.77,0,0,1-.81.73.78.78,0,0,1-.73-.82.77.77,0,0,1,.82-.72A.76.76,0,0,1,160.43,126.09Z" style="fill:#fff"></path><polygon points="194.2 207.93 264.99 207.93 245.98 155.7 175.19 155.7 194.2 207.93" style="fill:#407BFF"></polygon><polygon points="218.55 150.29 244.01 150.29 245.98 155.7 219.06 155.7 218.55 150.29" style="fill:#407BFF"></polygon><g style="opacity:0.2"><polygon points="194.2 207.93 264.99 207.93 245.98 155.7 175.19 155.7 194.2 207.93"></polygon><polygon points="218.55 150.29 244.01 150.29 245.98 155.7 219.06 155.7 218.55 150.29"></polygon></g><polygon points="189.07 174.19 239.37 202.47 275.66 137.9 238.32 116.91 218.45 121.93 189.07 174.19" style="fill:#ebebeb"></polygon><polygon points="238.32 116.91 218.45 121.93 231.4 129.21 238.32 116.91" style="fill:#dbdbdb"></polygon><rect x="234.18" y="138" width="32.08" height="1.9" transform="translate(100.19 -104.79) rotate(29.34)" style="fill:#dbdbdb"></rect><rect x="231.82" y="142.18" width="32.08" height="1.9" transform="translate(101.94 -103.1) rotate(29.34)" style="fill:#dbdbdb"></rect><rect x="229.47" y="146.37" width="32.08" height="1.9" transform="translate(103.69 -101.41) rotate(29.34)" style="fill:#dbdbdb"></rect><rect x="213.15" y="146.9" width="47" height="1.9" transform="translate(102.81 -97) rotate(29.34)" style="fill:#dbdbdb"></rect><rect x="210.8" y="151.08" width="47" height="1.9" transform="translate(104.56 -95.31) rotate(29.34)" style="fill:#dbdbdb"></rect><rect x="208.45" y="155.26" width="47" height="1.9" transform="matrix(0.87, 0.49, -0.49, 0.87, 106.31, -93.62)" style="fill:#dbdbdb"></rect><rect x="206.1" y="159.45" width="47" height="1.9" transform="translate(108.06 -91.93) rotate(29.34)" style="fill:#dbdbdb"></rect><rect x="203.75" y="163.63" width="47" height="1.9" transform="translate(109.8 -90.24) rotate(29.34)" style="fill:#dbdbdb"></rect><rect x="201.39" y="167.82" width="47" height="1.9" transform="translate(111.55 -88.55) rotate(29.34)" style="fill:#dbdbdb"></rect><rect x="199.04" y="172" width="47" height="1.9" transform="translate(113.3 -86.86) rotate(29.34)" style="fill:#dbdbdb"></rect><rect x="196.69" y="176.19" width="47" height="1.9" transform="translate(115.05 -85.17) rotate(29.34)" style="fill:#dbdbdb"></rect><rect x="194.34" y="180.37" width="47" height="1.9" transform="translate(116.8 -83.48) rotate(29.34)" style="fill:#dbdbdb"></rect><polygon points="193.92 207.93 264.71 207.93 270.27 160.03 199.48 160.03 193.92 207.93" style="fill:#407BFF"></polygon><polygon points="193.92 207.93 264.71 207.93 270.27 160.03 199.48 160.03 193.92 207.93" style="opacity:0.1"></polygon><polygon points="245.38 155.07 270.84 155.07 270.27 160.03 243.34 160.03 245.38 155.07" style="fill:#407BFF"></polygon><polygon points="245.38 155.07 270.84 155.07 270.27 160.03 243.34 160.03 245.38 155.07" style="opacity:0.1"></polygon><path d="M149.13,156.52c1.08,8.26,9,39.88,16,47.76,4.56,5.13,34.24,12.28,42.22,14.7,3.44,1,11.82-24.85,8-24.9-2.82,0-33.62-8.5-36.29-9.56,0,0-11.25-18.19-18.44-30.1C153.84,143.16,147.12,141.1,149.13,156.52Z" style="fill:#d3766a"></path><path d="M226.38,200.35c-1.37-1-.84-1.74,2.18-1.82s15.08,2.15,15.5-2.12-16.62-7.18-21.65-6.65-13,3.14-13,3.14C212.64,194.13,220.13,197.86,226.38,200.35Z" style="fill:#d3766a"></path><path d="M203,217.34c9.15,3.13,20.35,7.6,31,5.41a5.36,5.36,0,0,0,3.09-1.72c4.81-.9,5.83-3.44,5.83-3.44,4.23-2.2,4.92-4.94,4.92-4.94s5.63-1.11,5.53-4.63c-.11-4-8-1.61-13.13-3-11.74-3.14-27.56-10.89-30.85-12.13Z" style="fill:#d3766a"></path><path d="M225.67,210.39a77.07,77.07,0,0,0,10.44,2.17,78.38,78.38,0,0,0,11.67,0,.1.1,0,0,1,0,.19,41.46,41.46,0,0,1-22.18-2.2C225.47,210.48,225.49,210.35,225.67,210.39Z" style="fill:#263238"></path><path d="M222.74,217.2c3.43.65,9.46,1.74,20.22.28,0,0,0,.05,0,.06a37,37,0,0,1-20.27-.18C222.5,217.31,222.51,217.16,222.74,217.2Z" style="fill:#263238"></path><path d="M221.24,220.89c5.87.88,9.68.69,15.88.11,0,0,0,.06,0,.07-7,1.39-9.67,1.1-15.95,0C221,221.05,221,220.86,221.24,220.89Z" style="fill:#263238"></path><path d="M171.78,169.28l-18.4,15.24s-5.46-25.7-4.93-33.71c.59-9,5.07-6.74,10.79-.33S171.78,169.28,171.78,169.28Z" style="fill:#455a64"></path><path d="M154.6,161.69a5.91,5.91,0,0,0-.58-2.25,6.69,6.69,0,0,0,.36,4.55A6.3,6.3,0,0,0,154.6,161.69Zm1.65,15.78a6.24,6.24,0,0,0-2.24.58,6.26,6.26,0,0,0,2.3.22,5.81,5.81,0,0,0,2.24-.58A6.24,6.24,0,0,0,156.25,177.47Zm14.56-9.9a6.84,6.84,0,0,0-1.39,1.23,6.55,6.55,0,0,0-1.19,2,6.37,6.37,0,0,0,1.8-1.47,7.16,7.16,0,0,0,1-1.45h0ZM152.12,144.9a5.23,5.23,0,0,0-.74,1.43,5.69,5.69,0,0,0,1.52-1.2A3.59,3.59,0,0,0,152.12,144.9Z" style="fill:#fff"></path><path d="M153.26,179.11c.56-.63,6.21-5.47,7.47-6.49s6.33-5.27,7.71-6.22c.06,0,.14,0,.08.09-1.17,1.19-6.28,5.48-7.54,6.55s-7,5.74-7.65,6.16C153.27,179.24,153.22,179.15,153.26,179.11Z" style="fill:#263238"></path><path d="M170.31,170.48c.52-.5,1.36-1.25,1.36-1.25-1.31-2.44-9.08-14.18-10.9-17,0-.05,0-.09.07-.05,1.13,1.56,2.26,3.12,3.37,4.68-.11-.22-.21-.44-.31-.66-.38-.78-.73-1.57-1.13-2.34,0-.06.06-.12.1-.06a22.24,22.24,0,0,1,1.29,2.28c.26.56.47,1.13.69,1.7.63.91,1.27,1.8,1.88,2.72,1.87,2.83,3.92,5.69,5.57,8.65a12.77,12.77,0,0,1-1.9,1.5A.08.08,0,0,1,170.31,170.48Z" style="fill:#263238"></path><path d="M155.16,183.05c-.55.54-1.12,1.06-1.68,1.6l-.18.17-.08-.26a78.72,78.72,0,0,1-2.2-9.22c-.27-1.56-.52-3.12-.69-4.69s-.34-3.14-.41-4.72c.34,1.54.63,3.09.93,4.64l.9,4.64,1.79,9.27-.26-.08C153.9,184,154.52,183.48,155.16,183.05Z" style="fill:#263238"></path><path d="M150.78,171.84a4.21,4.21,0,0,1-1.07-1.63,5,5,0,0,1-.27-.93,3.57,3.57,0,0,1-.07-1,11.66,11.66,0,0,1,.8,1.73A16.71,16.71,0,0,1,150.78,171.84Z" style="fill:#263238"></path><path d="M173.3,139.58,171,146.84l-9.4-8.3-2.28,3s9.58,13.56,9.59,12.92l2.47-6.29,4.5,3.93-1.09-10.59Z" style="fill:#455a64"></path><path d="M175.61,146.88c-.24-1.74-.44-3.51-.76-5.24,0-.06-.11-.08-.12,0-.23,1.71.72,8.37.83,10l0,0c-.19-.17-4.15-3.45-4.19-3.39-.56,1-2.38,5.59-2.49,6-1.52-2.15-7.9-10.62-9.66-12.64,0,0-.14,0-.1.07,1.37,2.3,9.63,13.48,9.74,13.44a69.62,69.62,0,0,0,2.58-6.64c.68.73,4.71,4.45,4.71,4.19C176.09,150.87,175.84,148.62,175.61,146.88Z" style="fill:#263238"></path></g></svg>